<svg xmlns="http://www.w3.org/2000/svg" width="512" height="512" viewBox="0 0 512 512">
  <rect width="512" height="512" fill="#1B4332" rx="64"/>
  <g transform="translate(46, 150) scale(4.2)" fill="#F5F0E8">
    <path d="M10 18C10 18 15 8 30 5C45 2 65 4 80 10C85 12 88 16 90 18C88 14 85 10 80 7C65 0 45 -2 28 2C15 5 8 14 10 18Z"/>
    <path d="M8 30C8 30 20 14 50 14C75 14 90 26 92 30C90 24 75 10 50 10C22 10 10 26 8 30Z"/>
    <path d="M8 30C8 30 22 44 50 44C75 44 90 34 92 30C90 36 75 48 50 48C22 48 10 36 8 30Z"/>
    <ellipse cx="52" cy="30" rx="12" ry="11"/>
    <path d="M8 30L2 34L14 72L20 68L12 38L8 30Z"/>
    <path d="M8 30C6 32 4 38 6 44C8 40 10 36 8 30Z"/>
    <path d="M92 30C92 30 94 34 92 40C88 50 80 58 72 64C66 68 60 72 58 74C56 76 56 78 60 78C64 78 68 74 70 70C72 66 70 62 66 62C62 62 60 64 62 68" stroke="#F5F0E8" stroke-width="4" stroke-linecap="round" fill="none"/>
  </g>
</svg>
